<?xml version='1.0' encoding='utf-8'?>
<svg xmlns="http://www.w3.org/2000/svg" version="1.1" width="600px" height="976px" viewBox="0 0 600 976"> <g id="layer1"> <g> <g style="fill:rgb(0,0,0); fill-opacity:1.0; stroke-linejoin: miter"> <path d="M328.45874,526.6623C328.76334,526.80206,330.23853,527.5301,330.52823,527.68384C330.86206,527.85706,331.7915,528.59393,332.20193,529.00586C332.2689,529.07336,332.4284,529.21674,332.55975,529.32434C332.8088,529.5305,333.05875,529.7547,333.2946,529.9844C333.3716,530.06213,333.4899,530.17267,333.5506,530.23456C333.67792,530.358,334.2017,530.6586,334.5957,530.8349C334.93686,530.985,335.64136,531.4207,335.80423,531.5832C336.01215,531.783,336.1022,531.9046,336.07022,531.93744C335.9273,532.08246,335.87946,532.1845,335.70544,532.72003L335.6104,533.0092L335.69568,533.22833C335.79248,533.4876,335.89825,533.87976,335.94284,534.15125C335.96014,534.2585,335.99304,534.4633,336.01563,534.60504C336.03934,534.7443,336.06067,534.9089,336.0622,534.96533C336.06625,535.0227,336.0793,535.1661,336.0912,535.2856C336.13678,535.6747,336.15475,536.16,336.1311,536.3136C336.11838,536.3958,336.08734,536.61945,336.06195,536.81036C336.02066,537.11725,335.99518,537.2086,335.84268,537.6219C335.65512,538.128,335.44278,538.5443,335.258,538.7648C335.16718,538.8712,335.15964,538.88837,335.15494,539.0122C335.14505,539.2012,334.86172,539.8585,334.77585,539.89404C334.73102,539.9094,334.7092,539.9057,334.6797,539.8664C334.63098,539.804,334.58853,539.5276,334.61877,539.4588C334.65436,539.3778,334.59537,539.39874,334.44208,539.5275C334.3683,539.5888,334.26404,539.66595,334.2113,539.69257C334.0747,539.7701,333.69675,540.0901,333.6676,540.1564C333.62012,540.2643,333.22592,540.76746,333.04105,540.9615C332.9383,541.06854,332.7957,541.21967,332.72165,541.30133C332.60455,541.4343,332.12897,541.84314,331.93756,541.9786C331.60797,542.2086,331.04163,542.53064,330.82364,542.61346L330.66678,542.67035L330.82806,542.2639C330.9405,541.9883,330.99133,541.82605,330.99268,541.7564C330.9936,541.7011,331.02032,541.5137,331.0515,541.3429C331.0849,541.1672,331.1079,540.92834,331.1025,540.7942C331.09845,540.6635,331.1051,540.48193,331.11758,540.39374C331.14514,540.1979,331.13458,539.9355,331.09186,539.7263C331.07333,539.6421,331.05655,539.52045,331.05438,539.4521C331.05112,539.3863,331.0364,539.3065,331.02048,539.2761C331.00702,539.24677,330.977,539.1486,330.95706,539.0607C330.89697,538.7912,330.7891,538.5036,330.74246,538.4831C330.71793,538.4722,330.6826,538.4128,330.66412,538.35486C330.64673,538.2945,330.60776,538.21,330.57788,538.16473C330.54697,538.12177,330.4399,537.8726,330.33954,537.6146C330.1946,537.2317,330.16565,537.1311,330.1905,537.0746C330.26495,536.90533,330.48315,536.9486,331.15817,537.27185C331.41748,537.3947,331.80322,537.59656,332.01678,537.71686C332.44647,537.9586,332.66293,538.03906,333.10117,538.1147C333.44,538.17004,333.4354,538.1738,333.50195,537.98926C333.61185,537.68616,333.55072,537.37225,333.31033,537.0001C333.15317,536.7582,332.5851,536.0719,332.5164,536.0417C332.46976,536.0211,332.46057,536.02875,332.4372,536.1152C332.42188,536.17,332.40186,536.2753,332.39374,536.3538C332.34512,536.87714,332.33658,536.9232,332.23334,537.1912C332.1091,537.5202,332.06677,537.56305,331.94968,537.47644C331.85635,537.40906,331.67285,536.974,331.594,536.6405C331.5348,536.3889,331.50958,535.9268,331.54184,535.60706C331.56744,535.3226,331.53717,535.0984,331.42847,534.7928C331.33823,534.54517,331.30676,534.49023,331.08356,534.22516C330.9471,534.0627,330.77325,533.872,330.69785,533.80365C330.62003,533.73425,330.51154,533.628,330.45822,533.5694C330.40244,533.5097,330.30624,533.4089,330.24072,533.34485C329.8677,532.98737,328.75507,531.67505,328.66287,531.4851C328.64145,531.44055,328.62918,531.4351,328.57974,531.45435C328.54794,531.4668,328.51456,531.496,328.50372,531.5205C328.49402,531.5426,328.47128,531.56775,328.45007,531.576C328.4324,531.5829,328.34644,531.66516,328.25507,531.7597C328.16617,531.8553,328.03455,531.9614,327.96307,531.9974C327.89404,532.03436,327.81396,532.0899,327.78796,532.12244C327.7644,532.156,327.69598,532.205,327.63727,532.2319C327.58102,532.2598,327.5148,532.304,327.49203,532.3291C327.4682,532.3567,327.43283,532.3705,327.41568,532.3629C327.39603,532.35425,327.36264,532.3103,327.34235,532.26324C327.3116,532.19995,327.31345,532.11584,327.3464,531.9077C327.38528,531.6729,327.4208,531.56555,327.60205,531.12683C327.72095,530.8365,327.8554,530.5441,327.91547,530.4476C328.03668,530.25195,328.04333,530.29,327.847,529.98395C327.77933,529.878,327.71387,529.7673,327.70047,529.7379C327.68808,529.7062,327.60617,529.57935,327.51834,529.4528C327.43292,529.3274,327.33127,529.1655,327.29428,529.0965C327.25726,529.0276,327.22192,528.968,327.21457,528.9648C327.20718,528.96155,327.18878,528.93,327.17505,528.89465C327.16025,528.8618,327.1122,528.7645,327.06967,528.6814C327.02725,528.5983,326.9487,528.4173,326.894,528.282C326.8404,528.1441,326.7525,527.9444,326.70145,527.83405C326.64932,527.7262,326.58795,527.5528,326.56497,527.4519C326.54196,527.3509,326.50052,527.1921,326.4743,527.0986C326.40955,526.8797,326.41394,526.7499,326.48837,526.5805C326.55753,526.4234,326.60834,526.4078,326.67844,526.5147C326.70828,526.56006,326.71173,526.6055,326.6923,526.6497C326.66962,526.70123,326.68542,526.77844,326.75937,526.9633C326.8594,527.2153,326.88885,527.2282,326.89297,527.01917C326.89502,526.9146,326.85587,526.7773,326.71524,526.38446C326.67203,526.263,326.673,526.2341,326.7142,526.19366C326.7736,526.13196,326.86118,526.106,326.97308,526.1113C327.1321,526.1227,327.63193,526.2781,327.8997,526.40173C328.04828,526.47,328.29892,526.5861,328.45874,526.6623 Z"/> </g> </g> <g style="fill:rgb(0,0,0); fill-opacity:1.0; stroke-linejoin: miter"> <path d="M322.0214,518.629Q321.65533,518.62585,321.0573,519.0435Q321.0675,519.0622,321.08408,519.05316Q321.48883,518.80396,321.69174,518.7312Q321.9131,518.6505,322.05936,518.667Q322.39487,518.6854,322.60873,519.16766Q322.76434,519.50385,322.8834,520.31946Q322.92276,520.4654,323.19153,523.1263Q323.25818,523.6901,323.32806,524.0733Q323.4767,524.9047,323.7086,525.211Q323.8853,525.4667,324.17868,525.5473Q324.30334,525.5813,324.46136,525.5891Q325.34882,525.5679,325.511,525.61664Q325.8438,525.6676,326.25665,525.8912Q327.0165,526.2692,328.7238,527.95715Q328.75653,527.92755,328.73013,527.9194L328.44708,527.6442Q327.81595,527.0306,327.3964,526.67114Q326.77133,526.13354,326.29004,525.86896Q325.8643,525.6351,325.5163,525.58136Q325.354,525.5322,324.46667,525.5537Q324.30133,525.5444,324.19882,525.5158Q323.9249,525.4499,323.73944,525.1929Q323.49408,524.86487,323.3455,523.9668Q323.2839,523.8019,322.95395,520.5712Q322.86755,519.90533,322.77008,519.53644Q322.54938,518.65344,322.03494,518.6294"/> </g> </g> <g id="layer2"> <g style="fill:rgb(0,0,0); fill-opacity:1.0; stroke-linejoin: miter"> <path d="M281.66962,547.88885L281.69662,548.60895L281.69662,548.60895L281.2416,548.1896L281.66962,547.88885 Z M277.17203,548.85187Q277.13525,548.8757,277.09763,548.901L276.855,548.8586L276.85483,548.8586Q276.85483,548.8586,276.85483,548.8585L276.85464,548.8585L277.17184,548.85187 Z M278.9786,548.8136L279.0905,548.9001L279.09027,548.9001Q279.02832,548.9405,278.96964,548.97784L278.96964,548.97784Q278.89664,548.8852,278.83292,548.81665L278.8327,548.81665L278.9786,548.8136 Z M322.51227,518.0409L309.66333,526.89215L283.85306,545.306Q281.86856,546.8945,280.54813,547.87244L280.54813,547.87244L278.98206,547.5104L276.70258,547.2535L276.7024,547.2535Q276.53818,546.0767,276.24158,545.29517Q275.9167,544.1834,273.9365,540.7906L273.81992,539.41095Q273.72797,539.27625,273.63605,539.14636L273.6359,539.14636L273.96918,538.54816Q274.1933,538.4591,274.25772,538.3055Q274.33463,538.17664,274.2923,537.56244L275.04218,537.2163L275.9173,536.9077L275.8423,536.1216Q276.13925,535.88947,276.1163,535.58636Q276.11398,535.3068,275.83673,535.13184Q276.34476,534.93445,276.29822,534.7147Q276.28207,534.60095,276.18665,534.4558Q276.111,534.3334,275.87415,534.04913L275.6783,533.7448L275.6783,533.7448L275.7543,533.7339Q276.67963,532.60364,276.81155,532.1927Q276.9721,531.77167,276.48148,531.59436Q276.0792,531.4299,274.49237,531.33295Q273.37396,530.54346,272.2409,530.5219L272.23373,530.52185Q272.21063,530.5213,272.18738,530.52124Q271.43356,530.5188,270.54437,531.02856Q269.48593,531.6679,269.3143,532.2112Q269.17453,532.59863,269.3307,533.2802Q269.4599,533.9181,270.04758,535.589L269.74683,537.79254L270.80783,536.92474L270.80783,536.92474L269.86676,537.951Q269.60074,538.32526,269.38226,538.6721Q268.6262,539.8754,268.05078,541.50793Q267.69324,542.54425,267.50665,543.5447Q267.3692,544.17444,267.05383,546.6938L266.9372,547.3368Q266.8423,547.7939,266.6348,548.29016L265.65472,552.45416L268.18167,553.0671L268.18155,553.0671Q267.83694,553.9732,267.9614,554.7759Q268.02005,555.30634,268.281,556.2856L268.4679,556.96875Q268.70752,557.61084,268.79666,557.9151Q268.88788,558.21484,268.95612,558.5243Q269.12833,559.31195,269.15805,560.2223Q269.189,561.0286,269.1315,562.3159L268.83154,567.4958L268.83154,567.4958L268.60562,567.4643L268.59894,567.4634L268.56992,568.4729Q268.38992,568.9935,268.40228,569.2205Q268.37982,569.50415,268.79642,569.9154L268.6876,571.392L268.55826,575.06537L268.7325,579.26587L268.71307,580.9468Q268.86838,581.18805,269.55582,581.19025Q270.02246,581.1917,270.73428,581.083L271.49326,581.50104L273.2417,581.8592Q274.8515,581.6689,275.739,581.4294L276.0756,580.52L275.61673,580.07007L274.13858,579.39136L272.9302,578.2907Q272.75845,578.12256,272.79318,578.09155Q272.8108,578.07587,272.85272,578.076Q272.8952,578.0762,272.9627,578.09247Q274.09998,578.42236,274.44437,578.45166Q274.65863,578.4797,274.84033,578.4802Q275.09607,578.481,275.28726,578.42755Q275.59293,578.34534,275.76752,578.1269Q276.3156,577.36053,276.2831,577.1429Q276.28302,576.9042,275.9297,576.7753Q275.60934,576.6404,274.413,576.44977Q273.90207,576.2643,273.66885,576.1373Q273.09958,575.8431,272.96518,575.37866Q272.8587,575.0467,272.91016,574.44806Q272.93823,574.1112,273.0479,573.4655L273.57477,568.1562L273.55078,568.15283L273.55078,568.15283L274.18997,566.2503L275.37125,559.2017Q275.93567,557.7929,276.07825,556.92236Q276.29898,555.84564,276.2535,553.17224L276.25333,553.17224Q276.55792,553.02747,276.86337,552.8062Q276.9013,551.85254,276.90564,550.99927L276.90582,550.99927Q277.24554,551.355,277.46564,551.36444Q277.52094,551.37573,277.59833,551.37604Q277.75134,551.37646,277.99072,551.3336L278.21747,551.186L278.69678,550.95026L278.90866,550.69525Q279.38245,550.6937,279.47495,550.4509Q279.5461,550.3165,279.58942,549.91473Q279.46152,549.6998,279.3473,549.5207L279.34708,549.5207L279.6333,549.3196L280.40582,549.9166L281.45468,550.3115L282.11685,549.63544L282.00195,549.3256L282.00195,549.3256L282.53674,548.89667L282.53674,548.89667L282.73422,549.4418L282.73422,549.4418L282.10757,549.9576L282.10477,549.96155L282.7091,550.6218L285.37247,548.42676L284.74615,547.79144L284.74292,547.7882L284.07272,548.3399L284.07272,548.3399L283.30096,548.1278L283.29846,548.12714L283.07617,548.346L282.5302,547.2745L282.5302,547.2745L284.81024,545.3814Q305.18042,530.67944,309.913,527.0388L322.49362,518.05457L322.51227,518.0409 Z"/> </g> </g> </svg>